<mxfile host="Electron" agent="Mozilla/5.0 (Windows NT 10.0; Win64; x64) AppleWebKit/537.36 (KHTML, like Gecko) draw.io/24.7.8 Chrome/128.0.6613.36 Electron/32.0.1 Safari/537.36" version="24.7.8">
  <diagram name="Page-1" id="2YBvvXClWsGukQMizWep">
    <mxGraphModel dx="1105" dy="654" grid="1" gridSize="10" guides="1" tooltips="1" connect="1" arrows="1" fold="1" page="1" pageScale="1" pageWidth="850" pageHeight="1100" background="none" math="0" shadow="0">
      <root>
        <mxCell id="0" />
        <mxCell id="1" parent="0" />
        <mxCell id="3DbXoYP9Neb8XP8Io81B-1" value="Студент" style="shape=umlActor;verticalLabelPosition=bottom;verticalAlign=top;html=1;outlineConnect=0;labelBackgroundColor=none;" parent="1" vertex="1">
          <mxGeometry x="40" y="50" width="40" height="60" as="geometry" />
        </mxCell>
        <mxCell id="3DbXoYP9Neb8XP8Io81B-2" value="Язык программирования&lt;div&gt;Python&lt;/div&gt;" style="shape=umlActor;verticalLabelPosition=bottom;verticalAlign=top;html=1;outlineConnect=0;labelBackgroundColor=none;" parent="1" vertex="1">
          <mxGeometry x="300" y="50" width="40" height="60" as="geometry" />
        </mxCell>
        <mxCell id="3DbXoYP9Neb8XP8Io81B-3" value="Преподаватель" style="shape=umlActor;verticalLabelPosition=bottom;verticalAlign=top;html=1;outlineConnect=0;labelBackgroundColor=none;" parent="1" vertex="1">
          <mxGeometry x="540" y="50" width="40" height="60" as="geometry" />
        </mxCell>
        <mxCell id="3DbXoYP9Neb8XP8Io81B-4" value="" style="endArrow=none;dashed=1;html=1;rounded=0;labelBackgroundColor=none;fontColor=default;" parent="1" source="3DbXoYP9Neb8XP8Io81B-31" edge="1">
          <mxGeometry width="50" height="50" relative="1" as="geometry">
            <mxPoint x="60" y="720" as="sourcePoint" />
            <mxPoint x="60" y="140" as="targetPoint" />
          </mxGeometry>
        </mxCell>
        <mxCell id="3DbXoYP9Neb8XP8Io81B-5" value="" style="endArrow=none;dashed=1;html=1;rounded=0;labelBackgroundColor=none;fontColor=default;" parent="1" source="3DbXoYP9Neb8XP8Io81B-9" edge="1">
          <mxGeometry width="50" height="50" relative="1" as="geometry">
            <mxPoint x="319.58000000000004" y="440" as="sourcePoint" />
            <mxPoint x="319.58000000000004" y="140" as="targetPoint" />
          </mxGeometry>
        </mxCell>
        <mxCell id="3DbXoYP9Neb8XP8Io81B-6" value="" style="endArrow=none;dashed=1;html=1;rounded=0;labelBackgroundColor=none;fontColor=default;" parent="1" source="3DbXoYP9Neb8XP8Io81B-35" edge="1">
          <mxGeometry width="50" height="50" relative="1" as="geometry">
            <mxPoint x="560" y="720" as="sourcePoint" />
            <mxPoint x="559.71" y="140" as="targetPoint" />
          </mxGeometry>
        </mxCell>
        <mxCell id="3DbXoYP9Neb8XP8Io81B-11" value="" style="endArrow=none;dashed=1;html=1;rounded=0;labelBackgroundColor=none;fontColor=default;" parent="1" target="3DbXoYP9Neb8XP8Io81B-9" edge="1">
          <mxGeometry width="50" height="50" relative="1" as="geometry">
            <mxPoint x="320" y="720" as="sourcePoint" />
            <mxPoint x="319.58000000000004" y="140" as="targetPoint" />
          </mxGeometry>
        </mxCell>
        <mxCell id="3DbXoYP9Neb8XP8Io81B-9" value="" style="html=1;points=[[0,0,0,0,5],[0,1,0,0,-5],[1,0,0,0,5],[1,1,0,0,-5]];perimeter=orthogonalPerimeter;outlineConnect=0;targetShapes=umlLifeline;portConstraint=eastwest;newEdgeStyle={&quot;curved&quot;:0,&quot;rounded&quot;:0};labelBackgroundColor=none;" parent="1" vertex="1">
          <mxGeometry x="315" y="370" width="10" height="100" as="geometry" />
        </mxCell>
        <mxCell id="3DbXoYP9Neb8XP8Io81B-34" value="" style="endArrow=none;dashed=1;html=1;rounded=0;labelBackgroundColor=none;fontColor=default;" parent="1" target="3DbXoYP9Neb8XP8Io81B-31" edge="1" source="0G2NsT2vJJGpYUrEt_-A-10">
          <mxGeometry width="50" height="50" relative="1" as="geometry">
            <mxPoint x="60" y="720" as="sourcePoint" />
            <mxPoint x="60" y="140" as="targetPoint" />
          </mxGeometry>
        </mxCell>
        <mxCell id="3DbXoYP9Neb8XP8Io81B-31" value="" style="html=1;points=[[0,0,0,0,5],[0,1,0,0,-5],[1,0,0,0,5],[1,1,0,0,-5]];perimeter=orthogonalPerimeter;outlineConnect=0;targetShapes=umlLifeline;portConstraint=eastwest;newEdgeStyle={&quot;curved&quot;:0,&quot;rounded&quot;:0};labelBackgroundColor=none;" parent="1" vertex="1">
          <mxGeometry x="55" y="160" width="10" height="230" as="geometry" />
        </mxCell>
        <mxCell id="3DbXoYP9Neb8XP8Io81B-37" value="" style="endArrow=none;dashed=1;html=1;rounded=0;labelBackgroundColor=none;fontColor=default;" parent="1" target="3DbXoYP9Neb8XP8Io81B-35" edge="1">
          <mxGeometry width="50" height="50" relative="1" as="geometry">
            <mxPoint x="560" y="720" as="sourcePoint" />
            <mxPoint x="559.71" y="140" as="targetPoint" />
          </mxGeometry>
        </mxCell>
        <mxCell id="3DbXoYP9Neb8XP8Io81B-35" value="" style="html=1;points=[[0,0,0,0,5],[0,1,0,0,-5],[1,0,0,0,5],[1,1,0,0,-5]];perimeter=orthogonalPerimeter;outlineConnect=0;targetShapes=umlLifeline;portConstraint=eastwest;newEdgeStyle={&quot;curved&quot;:0,&quot;rounded&quot;:0};labelBackgroundColor=none;" parent="1" vertex="1">
          <mxGeometry x="555" y="460" width="10" height="200" as="geometry" />
        </mxCell>
        <mxCell id="0G2NsT2vJJGpYUrEt_-A-2" value="Изучение данных" style="html=1;align=left;spacingLeft=2;endArrow=block;rounded=0;edgeStyle=orthogonalEdgeStyle;curved=0;rounded=0;exitX=1;exitY=0;exitDx=0;exitDy=5;exitPerimeter=0;" edge="1" target="3DbXoYP9Neb8XP8Io81B-31" parent="1" source="3DbXoYP9Neb8XP8Io81B-31">
          <mxGeometry relative="1" as="geometry">
            <mxPoint x="70" y="170" as="sourcePoint" />
            <Array as="points">
              <mxPoint x="90" y="165" />
              <mxPoint x="90" y="200" />
            </Array>
            <mxPoint x="75" y="200" as="targetPoint" />
          </mxGeometry>
        </mxCell>
        <mxCell id="0G2NsT2vJJGpYUrEt_-A-4" value="Выполнение работы" style="html=1;align=left;spacingLeft=2;endArrow=block;rounded=0;edgeStyle=orthogonalEdgeStyle;curved=0;rounded=0;" edge="1" parent="1">
          <mxGeometry relative="1" as="geometry">
            <mxPoint x="65" y="220" as="sourcePoint" />
            <Array as="points">
              <mxPoint x="95" y="250" />
            </Array>
            <mxPoint x="65" y="250" as="targetPoint" />
          </mxGeometry>
        </mxCell>
        <mxCell id="0G2NsT2vJJGpYUrEt_-A-6" value="Написание отчета" style="html=1;align=left;spacingLeft=2;endArrow=block;rounded=0;edgeStyle=orthogonalEdgeStyle;curved=0;rounded=0;" edge="1" parent="1">
          <mxGeometry relative="1" as="geometry">
            <mxPoint x="65" y="320" as="sourcePoint" />
            <Array as="points">
              <mxPoint x="95" y="350" />
            </Array>
            <mxPoint x="65" y="350" as="targetPoint" />
          </mxGeometry>
        </mxCell>
        <mxCell id="0G2NsT2vJJGpYUrEt_-A-7" value="Изучение теории" style="html=1;align=left;spacingLeft=2;endArrow=block;rounded=0;edgeStyle=orthogonalEdgeStyle;curved=0;rounded=0;" edge="1" parent="1">
          <mxGeometry relative="1" as="geometry">
            <mxPoint x="65" y="270" as="sourcePoint" />
            <Array as="points">
              <mxPoint x="95" y="300" />
            </Array>
            <mxPoint x="65" y="300" as="targetPoint" />
          </mxGeometry>
        </mxCell>
        <mxCell id="0G2NsT2vJJGpYUrEt_-A-8" value="Написание кода" style="html=1;verticalAlign=bottom;endArrow=block;curved=0;rounded=0;" edge="1" parent="1" source="3DbXoYP9Neb8XP8Io81B-31" target="3DbXoYP9Neb8XP8Io81B-9">
          <mxGeometry width="80" relative="1" as="geometry">
            <mxPoint x="70" y="380" as="sourcePoint" />
            <mxPoint x="260" y="430" as="targetPoint" />
            <Array as="points">
              <mxPoint x="210" y="380" />
            </Array>
          </mxGeometry>
        </mxCell>
        <mxCell id="0G2NsT2vJJGpYUrEt_-A-9" value="выполнение кода" style="html=1;align=left;spacingLeft=2;endArrow=block;rounded=0;edgeStyle=orthogonalEdgeStyle;curved=0;rounded=0;" edge="1" parent="1">
          <mxGeometry relative="1" as="geometry">
            <mxPoint x="325" y="390" as="sourcePoint" />
            <Array as="points">
              <mxPoint x="355" y="420" />
            </Array>
            <mxPoint x="325" y="420" as="targetPoint" />
          </mxGeometry>
        </mxCell>
        <mxCell id="0G2NsT2vJJGpYUrEt_-A-11" value="" style="endArrow=none;dashed=1;html=1;rounded=0;labelBackgroundColor=none;fontColor=default;" edge="1" parent="1" target="0G2NsT2vJJGpYUrEt_-A-10">
          <mxGeometry width="50" height="50" relative="1" as="geometry">
            <mxPoint x="60" y="720" as="sourcePoint" />
            <mxPoint x="60" y="390" as="targetPoint" />
          </mxGeometry>
        </mxCell>
        <mxCell id="0G2NsT2vJJGpYUrEt_-A-10" value="" style="html=1;points=[[0,0,0,0,5],[0,1,0,0,-5],[1,0,0,0,5],[1,1,0,0,-5]];perimeter=orthogonalPerimeter;outlineConnect=0;targetShapes=umlLifeline;portConstraint=eastwest;newEdgeStyle={&quot;curved&quot;:0,&quot;rounded&quot;:0};" vertex="1" parent="1">
          <mxGeometry x="55" y="450" width="10" height="180" as="geometry" />
        </mxCell>
        <mxCell id="0G2NsT2vJJGpYUrEt_-A-12" value="Вывод результатов" style="html=1;verticalAlign=bottom;endArrow=block;curved=0;rounded=0;entryX=1;entryY=0;entryDx=0;entryDy=5;entryPerimeter=0;" edge="1" parent="1" source="3DbXoYP9Neb8XP8Io81B-9" target="0G2NsT2vJJGpYUrEt_-A-10">
          <mxGeometry width="80" relative="1" as="geometry">
            <mxPoint x="300" y="450" as="sourcePoint" />
            <mxPoint x="380" y="450" as="targetPoint" />
          </mxGeometry>
        </mxCell>
        <mxCell id="0G2NsT2vJJGpYUrEt_-A-13" value="Сдача лабораторной работы" style="html=1;verticalAlign=bottom;endArrow=block;curved=0;rounded=0;" edge="1" parent="1" source="0G2NsT2vJJGpYUrEt_-A-10" target="3DbXoYP9Neb8XP8Io81B-35">
          <mxGeometry width="80" relative="1" as="geometry">
            <mxPoint x="330" y="470" as="sourcePoint" />
            <mxPoint x="410" y="470" as="targetPoint" />
            <Array as="points">
              <mxPoint x="310" y="500" />
            </Array>
          </mxGeometry>
        </mxCell>
        <mxCell id="0G2NsT2vJJGpYUrEt_-A-14" value="Проверка знаний и правильности выполнения" style="html=1;verticalAlign=bottom;endArrow=block;curved=0;rounded=0;" edge="1" parent="1" source="3DbXoYP9Neb8XP8Io81B-35" target="0G2NsT2vJJGpYUrEt_-A-10">
          <mxGeometry width="80" relative="1" as="geometry">
            <mxPoint x="330" y="540" as="sourcePoint" />
            <mxPoint x="410" y="540" as="targetPoint" />
            <Array as="points">
              <mxPoint x="310" y="540" />
            </Array>
          </mxGeometry>
        </mxCell>
        <mxCell id="0G2NsT2vJJGpYUrEt_-A-15" value="Выставление баллов за работу" style="html=1;verticalAlign=bottom;endArrow=block;curved=0;rounded=0;" edge="1" parent="1" source="3DbXoYP9Neb8XP8Io81B-35" target="0G2NsT2vJJGpYUrEt_-A-10">
          <mxGeometry width="80" relative="1" as="geometry">
            <mxPoint x="330" y="540" as="sourcePoint" />
            <mxPoint x="410" y="540" as="targetPoint" />
            <Array as="points">
              <mxPoint x="200" y="590" />
            </Array>
          </mxGeometry>
        </mxCell>
      </root>
    </mxGraphModel>
  </diagram>
</mxfile>
